<svg xmlns="http://www.w3.org/2000/svg" viewBox="0 0 310.6 92.94"><defs><style>.cls-1{fill:#fff;}.cls-2{fill:none;}.cls-3{fill:#55b948;}.cls-4{fill:#15c1ea;}.cls-5{fill:#f6dc16;}</style></defs><g id="Layer_2" data-name="Layer 2"><g id="Layer_1-2" data-name="Layer 1"><path class="cls-1" d="M135.75,40H126V3.2h21.77v8h-12v7h11v8h-11Z"/><path class="cls-1" d="M170.41,11a14.61,14.61,0,0,1,2.44.2l.56.1-.88,9.3a14.66,14.66,0,0,0-3.35-.3c-2.15,0-3.72.49-4.69,1.47A5.79,5.79,0,0,0,163,26V40h-9.85V11.49h7.33L162.05,16h.48A9.79,9.79,0,0,1,166,12.38,8.25,8.25,0,0,1,170.41,11Z"/><path class="cls-1" d="M191.16,40.53q-7.12,0-11.07-3.79t-3.94-10.8q0-7.23,3.65-11.09T190.23,11q6.45,0,10,3.36c2.35,2.25,3.52,5.47,3.52,9.69v4.38H186.1a4.87,4.87,0,0,0,1.75,3.75,6.85,6.85,0,0,0,4.5,1.36,21.51,21.51,0,0,0,4.77-.49,23,23,0,0,0,4.72-1.67v7.07a17.26,17.26,0,0,1-4.78,1.64A33.33,33.33,0,0,1,191.16,40.53Zm-.58-22.85a4.13,4.13,0,0,0-2.91,1.1,5.15,5.15,0,0,0-1.37,3.43h8.47a4.91,4.91,0,0,0-1.18-3.29A3.84,3.84,0,0,0,190.58,17.68Z"/><path class="cls-1" d="M209.07,4.38a4.16,4.16,0,0,1,1.24-3.3,7.82,7.82,0,0,1,8,0,4.13,4.13,0,0,1,1.26,3.27q0,4.34-5.27,4.33T209.07,4.38ZM219.17,40h-9.85V11.49h9.85Z"/><path class="cls-1" d="M253,11.49v4.76l-3.9,1.43a6.92,6.92,0,0,1,.8,3.4,8.58,8.58,0,0,1-3.23,7.15q-3.24,2.55-9.66,2.55a12.78,12.78,0,0,1-2.52-.2,2.51,2.51,0,0,0-.35,1.23c0,.49.39.86,1.18,1.12a10.14,10.14,0,0,0,3.1.39h4.73q9.6,0,9.6,8.09a9.16,9.16,0,0,1-4.45,8.11q-4.44,2.9-12.48,2.89-6.06,0-9.35-2a6.48,6.48,0,0,1-3.29-5.83q0-5.12,6.35-6.6a5.67,5.67,0,0,1-2.28-1.79,3.83,3.83,0,0,1-.24-4.8A10.78,10.78,0,0,1,230,28.94a7.65,7.65,0,0,1-3.49-3.07,9.61,9.61,0,0,1-1.27-5.09,8.75,8.75,0,0,1,3.17-7.23Q231.62,11,237.51,11c.52,0,1.42.06,2.69.18s2.22.22,2.82.33ZM231.46,43.57a2.23,2.23,0,0,0,1.31,2,7.16,7.16,0,0,0,3.5.74,15.08,15.08,0,0,0,5.73-.9c1.44-.59,2.16-1.36,2.16-2.3a1.66,1.66,0,0,0-1.31-1.6,11.79,11.79,0,0,0-3.76-.47h-3.85a4.62,4.62,0,0,0-2.68.75A2.16,2.16,0,0,0,231.46,43.57Zm3.1-22.74q0,4.38,3.05,4.38a2.53,2.53,0,0,0,2.18-1.08,5.65,5.65,0,0,0,.77-3.25c0-3-1-4.43-2.95-4.43S234.56,17.91,234.56,20.83Z"/><path class="cls-1" d="M275.26,40V24.46q0-5.75-3.4-5.75a3.81,3.81,0,0,0-3.56,2q-1.16,2-1.15,6.74V40H257.3V.83h9.85V6.4q0,3.78-.4,8.61h.45a8.06,8.06,0,0,1,3.35-3.12,10.5,10.5,0,0,1,4.51-.91,9.84,9.84,0,0,1,7.44,2.76c1.78,1.84,2.66,4.41,2.66,7.72V40Z"/><path class="cls-1" d="M305.84,32.74a14.5,14.5,0,0,0,4.76-1v7.18a19.28,19.28,0,0,1-3.79,1.22,21.71,21.71,0,0,1-4.22.37q-5,0-7.15-2.43t-2.19-7.47V18.86H289.8v-4l4.38-3.1,2.54-6h6.45v5.72h7v7.37h-7V30C303.17,31.82,304.06,32.74,305.84,32.74Z"/><path class="cls-1" d="M135.5,76.39A50.52,50.52,0,0,1,138.55,72L145,63.9h11L146,76l10.53,16.4H145.3l-6.25-10.23-3.2,2.44v7.79H126V53.24h9.9V68.66a53.08,53.08,0,0,1-.55,7.73Z"/><path class="cls-1" d="M178.57,92.44l-1.89-3.78h-.2A11.22,11.22,0,0,1,172.42,92a13.25,13.25,0,0,1-5.34.91,8.37,8.37,0,0,1-6.34-2.42,9.41,9.41,0,0,1-2.32-6.8,7.75,7.75,0,0,1,3.17-6.79c2.12-1.48,5.18-2.32,9.2-2.5l4.76-.15v-.41q0-3.53-3.48-3.52a20.73,20.73,0,0,0-7.93,2.11L161.29,66c3.33-1.71,7.52-2.56,12.6-2.56q5.49,0,8.5,2.71a9.76,9.76,0,0,1,3,7.61V92.44ZM171.27,86a4.43,4.43,0,0,0,3.06-1.14,3.76,3.76,0,0,0,1.27-2.94V79.69l-2.27.1q-4.86.18-4.86,3.58C168.47,85.11,169.4,86,171.27,86Z"/><path class="cls-1" d="M209.32,63.4a13.81,13.81,0,0,1,2.45.2l.55.1L211.44,73a14.6,14.6,0,0,0-3.35-.3q-3.22,0-4.69,1.47a5.8,5.8,0,0,0-1.46,4.25v14H192.1V63.9h7.32L201,68.46h.48a9.85,9.85,0,0,1,3.44-3.67A8.23,8.23,0,0,1,209.32,63.4Z"/><path class="cls-1" d="M230.08,92.94q-7.12,0-11.07-3.79t-3.94-10.79q0-7.23,3.65-11.1t10.43-3.86q6.43,0,10,3.36t3.51,9.68v4.38H225a4.91,4.91,0,0,0,1.76,3.76,6.86,6.86,0,0,0,4.49,1.36,22.12,22.12,0,0,0,4.77-.49,23.77,23.77,0,0,0,4.73-1.68v7.08A17.65,17.65,0,0,1,236,92.49,33.3,33.3,0,0,1,230.08,92.94Zm-.58-22.85a4.1,4.1,0,0,0-2.91,1.1,5.13,5.13,0,0,0-1.37,3.44h8.46a4.92,4.92,0,0,0-1.17-3.3A3.88,3.88,0,0,0,229.5,70.09Z"/><path class="cls-2" d="M55.75,44.52a2.26,2.26,0,0,1,.17.35c0,.11.08.21.11.31a2.21,2.21,0,0,1,.08.35,2,2,0,0,1,.06.34c0,.12,0,.23,0,.35s0,.23,0,.34,0,.24-.06.35a1.87,1.87,0,0,1-.08.34c0,.11-.07.21-.11.32a3.73,3.73,0,0,1-.16.35l-.05.11L34.57,85.09,51,84.94,73.24,46,50.67,7.36l-16.5.16L55.71,44.41A.49.49,0,0,1,55.75,44.52Z"/><path class="cls-2" d="M27.93,11.2,7.8,46.46l6.45,11.06,7.57-13.11A3.62,3.62,0,0,1,28.09,48L18.46,64.72l9.81,16.81L48.4,46.26Z"/><path class="cls-3" d="M103.37,44.19,78.68,1.9a3.62,3.62,0,1,0-6.25,3.65L96.06,46,72.82,86.74a3.62,3.62,0,1,0,6.28,3.59l24.28-42.52A3.63,3.63,0,0,0,103.37,44.19Z"/><path class="cls-4" d="M24.94,1.88l-.12.19A.18.18,0,0,0,24.87,2,.75.75,0,0,0,24.94,1.88Z"/><path class="cls-4" d="M25.76,91.35v0Z"/><path class="cls-4" d="M26.84,92.08l.09,0-.06,0Z"/><path class="cls-4" d="M25.37,90.88l-.1-.15Z"/><path class="cls-4" d="M25.4,1.35l-.14.15a.6.6,0,0,1,.08-.08Z"/><path class="cls-4" d="M26,.91,25.78,1,25.91,1Z"/><path class="cls-4" d="M27.66,92.33l-.14,0Z"/><path class="cls-4" d="M27.28.4,27,.45l.15,0Z"/><path class="cls-4" d="M26.61.59l-.23.09.16-.06Z"/><path class="cls-4" d="M80.55,44.19,55.86,1.9A3.56,3.56,0,0,0,52.7.11L27.87.34h0a2,2,0,0,1,.35,0l.34.06.35.07.31.12.36.16.1,0,.17.11.32.23.26.24.24.25c.08.1.15.21.23.32a1,1,0,0,0,.12.16l3.14,5.39,16.5-.16L73.24,46,51,84.94l-16.46.15-3.12,5.48c-.06.1-.13.2-.2.3l-.06.09a3.7,3.7,0,0,1-.42.46.52.52,0,0,0-.11.1,4.54,4.54,0,0,1-.5.36l0,0h0l-.29.15-.15.07-.15,0a3.59,3.59,0,0,1-1.21.22h0l24.83-.23a3.62,3.62,0,0,0,3.11-1.83L80.56,47.81A3.6,3.6,0,0,0,80.55,44.19Z"/><path class="cls-4" d="M26.37,91.82l-.12-.08Z"/><path class="cls-5" d="M56.18,46.56c0,.12,0,.24-.06.35C56.14,46.8,56.17,46.68,56.18,46.56Z"/><path class="cls-5" d="M55.75,44.52a2.26,2.26,0,0,1,.17.35A2.26,2.26,0,0,0,55.75,44.52Z"/><path class="cls-5" d="M56,45.18a2.21,2.21,0,0,1,.08.35A2.21,2.21,0,0,0,56,45.18Z"/><path class="cls-5" d="M56,47.25c0,.11-.07.21-.11.32C56,47.46,56,47.36,56,47.25Z"/><path class="cls-5" d="M56.17,45.87c0,.12,0,.23,0,.35C56.18,46.1,56.18,46,56.17,45.87Z"/><path class="cls-5" d="M26,91.54l-.11-.1Z"/><path class="cls-5" d="M26.51,91.92h0Z"/><path class="cls-5" d="M25.44,91l-.05-.07Z"/><path class="cls-5" d="M27.66,92.33a3.47,3.47,0,0,0,.64.06h0a3.39,3.39,0,0,1-.64-.06Z"/><path class="cls-5" d="M26.93,92.12h0Z"/><path class="cls-5" d="M27,92.15a4.91,4.91,0,0,0,.51.15h0A4.13,4.13,0,0,1,27,92.15Z"/><path class="cls-5" d="M29.68,92.12l-.15,0Z"/><path class="cls-5" d="M31.19,91a4.58,4.58,0,0,1-.42.46A3.7,3.7,0,0,0,31.19,91Z"/><path class="cls-5" d="M27.51,92.3h0l.14,0h0Z"/><path class="cls-5" d="M26.87,92.09l.06,0h0Z"/><path class="cls-5" d="M30.66,91.52a4.54,4.54,0,0,1-.5.36A4.54,4.54,0,0,0,30.66,91.52Z"/><path class="cls-5" d="M30.12,91.9l-.29.15Z"/><path class="cls-5" d="M56.18,46.22c0,.11,0,.23,0,.34C56.19,46.45,56.18,46.33,56.18,46.22Z"/><path class="cls-5" d="M27.54.37a2.3,2.3,0,0,0-.26,0h.09A.86.86,0,0,1,27.54.37Z"/><path class="cls-5" d="M26.85.5l-.24.09.1,0Z"/><path class="cls-5" d="M55.93,47.57a3.73,3.73,0,0,1-.16.35A3.73,3.73,0,0,0,55.93,47.57Z"/><path class="cls-5" d="M26.18.78l-.11,0a.39.39,0,0,1-.1.08l.1-.06Z"/><path class="cls-5" d="M56.12,46.91a1.87,1.87,0,0,1-.08.34A1.87,1.87,0,0,0,56.12,46.91Z"/><path class="cls-5" d="M25.59,1.18l-.19.17.11-.09Z"/><path class="cls-5" d="M56.11,45.53a2,2,0,0,1,.06.34A2,2,0,0,0,56.11,45.53Z"/><path class="cls-5" d="M25.1,1.68l-.16.2.11-.12A.56.56,0,0,1,25.1,1.68Z"/><path class="cls-5" d="M55.92,44.87c0,.11.08.21.11.31C56,45.08,56,45,55.92,44.87Z"/><path class="cls-5" d="M29.86.93l.32.23Z"/><path class="cls-5" d="M30.44,1.4l.24.25Z"/><path class="cls-5" d="M29.23.61l.36.16Z"/><path class="cls-5" d="M27.37.4h-.09l-.09,0A.57.57,0,0,1,27.37.4Z"/><path class="cls-5" d="M25.05,1.76l-.11.12a.75.75,0,0,1-.07.12Z"/><path class="cls-5" d="M26.07.85,26,.91l-.06,0Z"/><path class="cls-5" d="M25.51,1.26l-.11.09-.06.07Z"/><path class="cls-5" d="M27.88.36a2,2,0,0,1,.35,0A2,2,0,0,0,27.88.36Z"/><path class="cls-5" d="M28.57.42l.35.07Z"/><path class="cls-5" d="M26.71.56l-.1,0-.07,0Z"/><path class="cls-5" d="M52.58,49.86a3.54,3.54,0,0,0,1.82-.5,3.51,3.51,0,0,0,1.37-1.44,3.73,3.73,0,0,0,.16-.35c0-.11.08-.21.11-.32a1.87,1.87,0,0,0,.08-.34c0-.11.05-.23.06-.35s0-.23,0-.34,0-.23,0-.35a2,2,0,0,0-.06-.34,2.21,2.21,0,0,0-.08-.35c0-.1-.07-.2-.11-.31a2.26,2.26,0,0,0-.17-.35,3.57,3.57,0,0,0-1.38-1.43,3.63,3.63,0,0,0-4.94,1.35l-1,1.82,1.05,1.8A3.64,3.64,0,0,0,52.58,49.86Z"/><path class="cls-5" d="M27,92.15l-.06,0Z"/><path class="cls-5" d="M25.37,90.88l0,0v0Z"/><path class="cls-5" d="M25.44,91a3.52,3.52,0,0,0,.31.35c-.06-.06-.1-.12-.15-.18Z"/><path class="cls-5" d="M26,91.54a2.69,2.69,0,0,0,.27.2l-.16-.12Z"/><path class="cls-5" d="M26.38.68l-.2.1.07,0Z"/><path class="cls-5" d="M25.26,1.5l-.16.18a.46.46,0,0,1,.07-.07A.48.48,0,0,1,25.26,1.5Z"/><path class="cls-5" d="M25.76,91.35l.11.09,0,0Z"/><path class="cls-5" d="M25.78,1l-.19.15.07,0Z"/><path class="cls-5" d="M27,.45l-.19,0,.09,0Z"/><path class="cls-5" d="M27.76.35l-.22,0h.22Z"/><polygon class="cls-5" points="28.31 92.39 28.31 92.39 28.32 92.39 28.31 92.39 28.31 92.39"/><path class="cls-5" d="M26.52,91.92a3.18,3.18,0,0,0,.32.16h0A1.87,1.87,0,0,1,26.52,91.92Z"/><path class="cls-5" d="M26.37,91.82l.13.09-.08-.06Z"/><path class="cls-5" d="M24.8,89.63c0-.11,0-.22-.06-.33C24.76,89.41,24.77,89.52,24.8,89.63Z"/><path class="cls-5" d="M25.19,90.59s0,.1.08.14l.1.15h0C25.31,90.79,25.25,90.69,25.19,90.59Z"/><path class="cls-5" d="M30.77,91.42a.52.52,0,0,0-.11.1A.52.52,0,0,1,30.77,91.42Z"/><path class="cls-5" d="M24.92,87.53a2.83,2.83,0,0,1,.16-.36A2.32,2.32,0,0,0,24.92,87.53Z"/><path class="cls-5" d="M24.74,88.2c0-.11.05-.22.08-.34C24.79,88,24.76,88.09,24.74,88.2Z"/><path class="cls-5" d="M25,90.29c-.05-.11-.09-.22-.13-.33C24.94,90.07,25,90.18,25,90.29Z"/><path class="cls-5" d="M24.69,88.81s0,.07,0,.11a1.71,1.71,0,0,1,0-.32A1.49,1.49,0,0,0,24.69,88.81Z"/><path class="cls-5" d="M29.83,92.05l-.15.07Z"/><path class="cls-5" d="M30.13,91.9l0,0,0,0Z"/><path class="cls-5" d="M26.84,92.07h0Z"/><path class="cls-5" d="M28.23.36a3.43,3.43,0,0,1,.34.06Z"/><path class="cls-5" d="M26.09,91.62l.16.12.12.08.05,0A3.88,3.88,0,0,1,26.09,91.62Z"/><path class="cls-5" d="M31.25,90.87l-.06.09Z"/><path class="cls-5" d="M28.31,92.39h0a3.59,3.59,0,0,0,1.21-.22A3.61,3.61,0,0,1,28.31,92.39Z"/><path class="cls-5" d="M30.68,1.65c.08.1.15.21.23.32C30.83,1.86,30.76,1.75,30.68,1.65Z"/><path class="cls-5" d="M28.92.49l.31.12Z"/><path class="cls-5" d="M25.6,91.15c0,.06.09.12.15.18v0l.08.06A3,3,0,0,1,25.6,91.15Z"/><path class="cls-5" d="M30.18,1.16l.26.24Z"/><path class="cls-5" d="M29.69.82l-.1,0,.27.16Z"/><path class="cls-5" d="M25.34,1.42a.6.6,0,0,0-.08.08.48.48,0,0,0-.09.11Z"/><path class="cls-5" d="M24.42,4.92c0-.12-.06-.23-.08-.34C24.36,4.69,24.39,4.8,24.42,4.92Z"/><path class="cls-5" d="M27.19.43,27,.45l-.1,0Z"/><path class="cls-5" d="M24.28,4c0,.07,0,.13,0,.2,0-.11,0-.21,0-.32S24.28,4,24.28,4Z"/><path class="cls-5" d="M24.33,3.48c0-.11,0-.22.05-.33C24.36,3.26,24.34,3.37,24.33,3.48Z"/><path class="cls-5" d="M24.48,2.81a3,3,0,0,1,.12-.32A3,3,0,0,0,24.48,2.81Z"/><path class="cls-5" d="M24.69,5.61a2.83,2.83,0,0,1-.16-.36A2.83,2.83,0,0,0,24.69,5.61Z"/><path class="cls-5" d="M26.54.62l-.16.06-.13.07Z"/><path class="cls-5" d="M24.87,2a.18.18,0,0,1-.05.07.54.54,0,0,0-.05.11Z"/><path class="cls-5" d="M25.91,1,25.78,1l-.12.11Z"/><path class="cls-5" d="M27.88.36h0Z"/><path class="cls-5" d="M28.27,85.15l2.1,0-2.1-3.6L25.16,87c0,.06-.05.13-.08.19A3.6,3.6,0,0,1,28.27,85.15Z"/><path class="cls-5" d="M26.42,91.85l.08.06h0a1.87,1.87,0,0,0,.32.15A2.78,2.78,0,0,1,26.42,91.85Z"/><path class="cls-5" d="M25.84,91.41l0,0,.11.1.11.08C26,91.55,25.92,91.49,25.84,91.41Z"/><path class="cls-5" d="M24.82,87.86c0-.11.06-.22.1-.33C24.88,87.64,24.85,87.75,24.82,87.86Z"/><path class="cls-5" d="M24.74,89.3a2.45,2.45,0,0,1,0-.38A2.45,2.45,0,0,0,24.74,89.3Z"/><path class="cls-5" d="M25.19,90.59l-.16-.3Z"/><path class="cls-5" d="M24.9,90c0-.11-.07-.22-.1-.33C24.83,89.74,24.86,89.85,24.9,90Z"/><path class="cls-5" d="M25.38,90.89v0l.05.07.16.17Z"/><path class="cls-5" d="M24.71,88.6a2.69,2.69,0,0,1,0-.4A2.8,2.8,0,0,0,24.71,88.6Z"/><path class="cls-5" d="M26.93,92.12h0l.06,0a4.13,4.13,0,0,0,.5.15A4.91,4.91,0,0,1,26.93,92.12Z"/><path class="cls-5" d="M28.31,92.39a4.48,4.48,0,0,1-.64-.06,3.39,3.39,0,0,0,.64.06Z"/><path class="cls-5" d="M27.67.36h-.13a.86.86,0,0,0-.17,0Z"/><path class="cls-5" d="M26.94.48l-.09,0-.14.06Z"/><path class="cls-5" d="M24.53,5.25c0-.11-.08-.22-.11-.33C24.45,5,24.49,5.14,24.53,5.25Z"/><path class="cls-5" d="M24.29,3.87a2.58,2.58,0,0,1,0-.39A2.58,2.58,0,0,0,24.29,3.87Z"/><path class="cls-5" d="M26.25.75l-.07,0-.11.07Z"/><path class="cls-5" d="M24.6,2.49a3.07,3.07,0,0,1,.17-.31A3.07,3.07,0,0,0,24.6,2.49Z"/><path class="cls-5" d="M24.34,4.58c0-.13,0-.26,0-.39C24.31,4.32,24.32,4.45,24.34,4.58Z"/><path class="cls-5" d="M24.38,3.15c0-.11.06-.22.1-.34C24.44,2.93,24.41,3,24.38,3.15Z"/><path class="cls-5" d="M25.66,1.14l-.07,0-.08.08Z"/><path class="cls-5" d="M27.93,7.58h0a3.62,3.62,0,0,1-3.21-2s0,.12.08.17l3.16,5.42L30,7.56Z"/><path class="cls-5" d="M25.17,1.61a.46.46,0,0,0-.07.07.56.56,0,0,0-.05.08Z"/><path class="cls-5" d="M54.4,49.36a3.54,3.54,0,0,1-1.82.5,3.64,3.64,0,0,1-3.13-1.8l-1.05-1.8L28.27,81.53l2.1,3.6-2.1,0a3.6,3.6,0,0,0-3.19,2c0-.06.05-.13.08-.19l3.11-5.45L18.46,64.72l-.85,1.46A3.61,3.61,0,0,1,14.48,68a3.69,3.69,0,0,1-1.81-.48,3.63,3.63,0,0,1-1.33-5l2.91-5L7.8,46.46,27.93,11.2,24.77,5.78s-.05-.12-.08-.17a3.62,3.62,0,0,0,3.21,2h0l2.08,0L27.93,11.2,48.4,46.26l1-1.82a3.63,3.63,0,0,1,4.94-1.35,3.57,3.57,0,0,1,1.38,1.43.49.49,0,0,0,0-.11L34.17,7.52,31,2.13A1,1,0,0,1,30.91,2c-.08-.11-.15-.22-.23-.32l-.24-.25-.26-.24L29.86.93,29.59.77,29.23.61,28.92.49,28.57.42a3.43,3.43,0,0,0-.34-.06,2,2,0,0,0-.35,0h-.21l-.3,0a.57.57,0,0,0-.18,0l-.25,0-.23.08-.17.06-.29.13-.18.1-.16.1-.25.19-.15.12-.17.16-.17.19-.12.15L24.87,2l-.1.18a.54.54,0,0,1,.05-.11s-.05.06-.06.1L.48,44.69a3.6,3.6,0,0,0,0,3.62L25.18,90.6l.09.13s-.05-.1-.08-.14.12.2.19.3l.22.26a3,3,0,0,0,.24.26c.08.08.17.14.25.21a3.88,3.88,0,0,0,.33.23,2.78,2.78,0,0,0,.42.22l0,0,.06,0a4.91,4.91,0,0,0,.58.18l.16,0a4.48,4.48,0,0,0,.64.06h0a3.61,3.61,0,0,0,1.22-.22l.15,0,.15-.07.29-.15,0,0a4.54,4.54,0,0,0,.5-.36.52.52,0,0,1,.11-.1,4.58,4.58,0,0,0,.42-.46l.06-.09c.07-.1.14-.2.2-.3l3.12-5.48L55.72,48l.05-.11A3.51,3.51,0,0,1,54.4,49.36ZM24.29,3.87c0,.11,0,.21,0,.32,0-.07,0-.13,0-.2S24.29,3.91,24.29,3.87Zm.4,84.94a1.49,1.49,0,0,1,0-.21,1.71,1.71,0,0,0,0,.32S24.69,88.84,24.69,88.81Z"/><path class="cls-5" d="M26.77,43.09a3.62,3.62,0,0,0-4.95,1.32L14.25,57.52l4.21,7.2L28.09,48A3.61,3.61,0,0,0,26.77,43.09Z"/><path class="cls-5" d="M11.34,62.56a3.63,3.63,0,0,0,1.33,5,3.69,3.69,0,0,0,1.81.48,3.61,3.61,0,0,0,3.13-1.81l.85-1.46-4.21-7.2Z"/></g></g></svg>