<svg xmlns="http://www.w3.org/2000/svg" width="288" height="288"><rect width="288" height="288" fill="#fff" rx="20" ry="20" transform="translate(30.01 30.01) scale(.7916)"/><svg xmlns="http://www.w3.org/2000/svg" width="288" height="288" transform="matrix(.8 0 0 .8 28.8 28.8)" viewBox="0 0 1792 1792"><path fill="#034ea2" d="M1596 476q14 14 28 36h-472V40q22 14 36 28zm-476 164h544v1056q0 40-28 68t-68 28H224q-40 0-68-28t-28-68V96q0-40 28-68t68-28h800v544q0 40 28 68t68 28zm160 736v-64q0-14-9-23t-23-9H544q-14 0-23 9t-9 23v64q0 14 9 23t23 9h704q14 0 23-9t9-23zm0-256v-64q0-14-9-23t-23-9H544q-14 0-23 9t-9 23v64q0 14 9 23t23 9h704q14 0 23-9t9-23zm0-256v-64q0-14-9-23t-23-9H544q-14 0-23 9t-9 23v64q0 14 9 23t23 9h704q14 0 23-9t9-23z" class="color000 svgShape"/></svg></svg>