<svg xmlns="http://www.w3.org/2000/svg" width="288" height="288"><rect width="288" height="288" fill="#fff" rx="20" ry="20" transform="translate(30.01 30.01) scale(.7916)"/><svg xmlns="http://www.w3.org/2000/svg" width="288" height="288" transform="matrix(.71 0 0 .71 41.76 40.455)" viewBox="0 0 32 32"><path fill="#034ea2" d="M-.006 6v8.492h20V6h-20zM27.19 8.979c-2.171 0-5.697.011-5.697.011h-.5l-.006 5.99c0 .01.004.015.004.022v4h-.996v-3.494h-20v1.494h2.479c.676-.01.676 1.01 0 1H-.006v3h4.131a4 4 0 0 1 3.87-3 3.998 3.998 0 0 1 3.868 3h9.262a4 4 0 0 1 3.87-3 3.998 3.998 0 0 1 3.868 3H32v-3h-1.467c-.676.01-.676-1.01 0-1H32l.006-2h-.016a.47.47 0 0 0-.11-.33l-4.316-5.52a.5.5 0 0 0-.375-.172V8.98zm-5.197 1h2.494v4.507h-2.5l.006-4.504V9.98zm3.494 0h1.477l3.457 4.517-4.934-.01V9.98zm6.502 5.027.012.014h-.014l.002-.014zm-9.029.494h1.049c.676-.01.676 1.01 0 1h-1.014c-.667.023-.702-.977-.035-1zM7.994 19a3 3 0 1 0 0 6 3 3 0 0 0 0-6zm17 0a3 3 0 1 0 0 6 3 3 0 0 0 0-6zm-17 2a1 1 0 1 1 0 2 1 1 0 0 1 0-2zm17 0a1 1 0 1 1 0 2 1 1 0 0 1 0-2z" class="color000 svgShape"/></svg></svg>